# xmcd
#
# Track frame offsets: 
#        183
#        16358
#        36488
#        50618
#        63075
#        76398
#        91058
#        111438
#        125685
#        146258
#        162983
#        179655
#        196845
#        212828
#        233123
#        250995
#        269050
#        286825
#        297090
#        307883
#        320883
#
# Disc length: 4443 seconds
#
# Revision: 2
# Processed by: cddbd v1.5.2PL0 Copyright (c) Steve Scherf et al.
# Submitted via: ExactAudioCopy v0.95a5
#
DISCID=3c115915
DTITLE=John Mayall - 1966-1972 [CD 1)
DYEAR=2001
DGENRE=Blues
TTITLE0=All Your Love
TTITLE1=What'd I Say
TTITLE2=Ramblin' On My Mind
TTITLE3=Vacation
TTITLE4=Walking On Sunset
TTITLE5=When I'm Gone
TTITLE6=I Need Your Love
TTITLE7=No More Tears
TTITLE8=Laurel Canyon
TTITLE9=Brown Sugar
TTITLE10=Down The Line
TTITLE11=Sonny Boy Blow
TTITLE12=Oh Pretty Woman
TTITLE13=I Can't Quit You Baby
TTITLE14=Driving Sideways
TTITLE15=Me And My Woman
TTITLE16=Checkin' Up On My Baby
TTITLE17=Hit The Highway
TTITLE18=Leaping Christine
TTITLE19=The Stumble
TTITLE20=Dust In My Blues
EXTD=
EXTT0=
EXTT1=
EXTT2=
EXTT3=
EXTT4=
EXTT5=
EXTT6=
EXTT7=
EXTT8=
EXTT9=
EXTT10=
EXTT11=
EXTT12=
EXTT13=
EXTT14=
EXTT15=
EXTT16=
EXTT17=
EXTT18=
EXTT19=
EXTT20=
PLAYORDER=
